<svg version="1.1" id="Layer_1" xmlns="http://www.w3.org/2000/svg" xmlns:xlink="http://www.w3.org/1999/xlink" x="0px" y="0px"
	 width="100%" viewBox="0 0 1024 1024" enable-background="new 0 0 1024 1024" xml:space="preserve">
<path fill="#000000" opacity="1.000000" stroke="none" 
	d="
M405.598083,607.478271 
	C376.743561,587.949219 357.907867,561.864624 350.359680,527.999268 
	C345.675232,506.982117 346.752563,486.327728 354.684692,466.176331 
	C357.771667,458.333954 362.132812,451.273102 368.056519,445.268494 
	C370.156860,443.139465 371.318420,440.829620 371.698578,437.860626 
	C377.008362,396.390625 409.980469,365.177521 452.051025,361.593872 
	C476.539124,359.507874 497.912384,366.819580 517.038757,382.019257 
	C525.082458,388.411530 533.663391,393.013367 544.985840,393.068695 
	C571.594421,393.198761 594.085693,414.588409 597.360413,441.154785 
	C597.560852,442.780609 597.500854,444.492004 599.159729,446.223877 
	C605.454651,443.259094 611.883057,440.214935 618.325317,437.200317 
	C637.936646,428.023224 656.895447,417.412720 677.114136,409.590637 
	C691.185425,404.146881 704.901794,405.207916 717.346619,414.579620 
	C739.884216,431.551788 731.867615,462.220001 712.421509,472.155884 
	C703.789246,476.566467 694.683655,479.781860 685.742493,483.414398 
	C660.750305,493.568054 635.751343,503.706512 610.685059,513.674988 
	C606.751953,515.239136 604.582397,517.529480 603.424622,521.645325 
	C598.176392,540.303406 591.929382,558.544250 580.101562,574.329590 
	C557.263489,604.809326 527.261597,623.029480 489.242737,627.413696 
	C459.122528,630.887024 431.398193,623.900940 405.598083,607.478271 
M467.654633,394.098419 
	C471.806366,390.479248 477.049927,388.635559 481.851593,385.825867 
	C480.314056,383.988678 478.451324,383.738373 476.713196,383.360474 
	C467.864929,381.436768 459.028320,381.074768 449.957886,382.245270 
	C419.479736,386.178314 392.832062,413.477997 391.482635,443.477386 
	C391.146881,450.941162 389.537872,455.510590 382.406219,459.488708 
	C368.960205,466.989044 360.424194,487.107788 379.095154,502.337555 
	C383.365326,505.820770 387.811279,509.053558 392.703583,511.598450 
	C416.865875,524.167114 442.592682,527.681641 469.281250,523.825928 
	C500.213837,519.357056 523.792114,504.304474 536.563904,474.735168 
	C537.668335,472.178223 539.280518,470.958496 542.080505,470.457245 
	C552.063171,468.670044 561.977051,466.500275 571.953125,464.673126 
	C575.636536,463.998505 577.797974,462.508789 578.353149,458.482208 
	C582.025696,431.845184 565.229187,409.986603 535.714600,414.360931 
	C532.101196,414.896484 529.935242,414.249054 527.653625,411.449097 
	C523.456787,406.298889 517.913208,402.969055 511.496857,401.098755 
	C491.341827,395.223785 469.361847,404.446869 459.067047,423.070251 
	C458.182922,424.669739 457.797913,427.435791 455.096130,426.649750 
	C452.937408,426.021729 452.634033,423.678833 452.393250,421.679932 
	C452.276245,420.708496 452.421783,419.693420 452.535217,418.708099 
	C453.717072,408.445190 459.421265,400.899414 467.654633,394.098419 
M612.741394,489.141296 
	C638.257690,479.416687 663.775330,469.695740 689.289062,459.964386 
	C694.588806,457.943024 699.832397,455.797852 704.356262,452.259338 
	C713.486633,445.117645 712.770813,435.310120 702.690796,429.712677 
	C700.045227,428.243591 697.210022,427.454895 694.152344,427.172974 
	C685.854980,426.407898 678.394348,428.865570 671.136658,432.542419 
	C647.508606,444.512817 624.189026,457.053192 601.071777,469.980774 
	C598.236877,471.566132 596.814026,473.591187 596.729553,476.628754 
	C596.633606,480.080505 594.744751,481.467896 591.569763,482.156769 
	C579.700989,484.731964 567.895142,487.601318 556.010376,490.096710 
	C552.253784,490.885437 549.944580,492.766998 547.948608,495.988586 
	C536.103333,515.106934 520.134766,529.551636 498.843597,537.403931 
	C461.144043,551.307739 424.060822,548.560852 387.599243,532.609070 
	C381.052582,529.744934 375.323517,525.434814 369.232788,521.790588 
	C368.342224,523.065002 369.069733,524.005371 369.265198,524.919617 
	C369.681335,526.865967 370.177795,528.810669 370.837616,530.687012 
	C377.592377,549.895935 388.182770,566.505981 403.477936,580.165833 
	C449.946899,621.666443 520.618164,615.720764 559.890442,567.179810 
	C572.547607,551.535461 580.385498,533.730896 585.656189,514.662720 
	C588.804260,503.273926 595.393433,495.603882 606.480164,491.692230 
	C608.362610,491.028076 610.189026,490.205322 612.741394,489.141296 
z"/>
</svg>